<svg xmlns="http://www.w3.org/2000/svg" width="800" height="1300" viewBox="0 0 800 1300">
  <defs>
    <style>
      .cls-1 {
        fill: #86efac;
        stroke: #000;
        stroke-width: 1px;
        fill-rule: evenodd;
      }
    </style>
  </defs>
  <path id="Forma_1" data-name="Forma 1" class="cls-1" d="M467.553,212.866c-0.317,17.881.341,9.476,0.03,20.186,1.336-.675,16.741,22.853,18.076,22.179-1.487-32.132-22.481-143.137-20.274-153.387,5.145-23.894,28.805-46.286,46.047-44.478,56.267,5.9,55.866,38.077,62.272,82.673,2.693,18.749,10.7,94.224,14.182,100.911,1.334-2.021,1.843,5.66,6.015-.009,5.185-43.311-5.6-185.856,1.7-205.9C603.311,13.876,622.755.786,647.679,0.644c27.278-.155,45.3,27.967,46.162,34.249,5.037,36.579,1.561,195.653,2.382,256.363,12.465-5.268,23.08-10.018,44.092-10.158-5.372-16.408-18.88-30.218-12.1-46.411,21.023-.764,60.253,13.188,70.211,28.158l0.006,4.037c-14.7,15.33-40.421,11.882-38.056,24.28,21.13,7.627,31.127,40.343,24.153,64.561-3.036,10.545-45.836,120.785-47.92,133.3-0.089.534,9.37,0.072,8.019-.012,0.3,201.843.894,607.629,1.191,809.469L4.03,1299.57C3.808,993.142,2.984,513.358,2.834,490.1c2.848,0.109,6.042.168,6.015-.009C6.635,475.86,6.528,475.712.773,451.751c7.991-18.85,17.986-39.728,25.977-58.578,3.417-4.528-2.314-10.694-4.025-10.088-1.433.509-7.815-35.5-10.1-50.451,38.613-8.6,78.836-17.611,116.246-24.394q1.005,2.016,2.011,4.034c1.378,8.547,4.144,25.373,6.065,34.308,1.091,5.076,2.266,6.117,6.023,6.047,2.267,1.795,11.987-28.952,11.985-30.3,7.622-23.805,9.836-30.907,25.941-82.8,3.737-12.042,6.61-23.06,11.97-40.391,5.328-17.227,7.853-30.282,13.98-36.356,21.107-13.022,100.7,11.793,106.311,36.179q-13.965,46.445-27.931,92.9c10.631-.185,16.082,1.037,22.059,4,0.5,22.855,2.135,36.031.071,48.447-1.457,8.766-6.877-4.2-5.982,22.213l18.065,14.1,2.005,0q-0.067-45.414-.134-90.838c7.286-10.746,1.335-1.587,20-30.309,15.968-24.566,15.727-24.935,15.971-46.452Zm-285.7,672.625c-14.716.1-26.232,13.354-26.027,24.262,0.081,16.313,12.707,27.792,24.1,28.226,18.015,0.278,28.01-15.018,28.029-26.284C208.049,900.615,199.716,885.4,181.848,885.491Zm374.908-.551c-14,.212-26.05,10.771-26.028,24.262,0.106,13.795,8,28.534,26.105,28.222,17.952-.28,26.2-14.27,26.021-28.3C583.1,896.8,570.748,885.036,556.756,884.94ZM185.98,968.249c-32.447.531-54.033,19.365-54.084,32.381,0.846,12.78,15.315,32.15,54.179,32.22,38.258-.16,54.228-20.57,54.083-32.38C239.941,988.387,223.871,968.256,185.98,968.249Zm314.8,27.8c-1.739,7.823.848,36.133,54.185,36.253,49.57,0.12,52.878-29.21,52.072-36.409,1.283-12.634-24.9-27.953-52.167-28.184C526.388,967.465,503.446,983.964,500.783,996.047Zm-190.476-9.813c0.206,86.686,118.4,86.536,118.287-.174,0-3.685-10.349-3.51-10.025.015-5.784,70.555-91.683,71.435-98.238.144C318.576,982.376,311.733,982.226,310.307,986.234ZM26.75,393.173"/>
</svg>
